<svg viewBox="0 0 24 24" fill="none" xmlns="http://www.w3.org/2000/svg">
  <g stroke-width="0"/>
  <g stroke-linecap="round" stroke-linejoin="round"/>
  <path d="M14 15v-1c0-.932 0-1.398.152-1.765a2 2 0 0 1 1.083-1.083C15.602 11 16.068 11 17 11h.5c1.404 0 2.107 0 2.611.337.218.146.406.334.552.552.337.504.337 1.207.337 2.611v.843c0 .818 0 1.226-.152 1.594-.152.367-.441.656-1.02 1.235l-.588.588a.726.726 0 0 1-1.24-.513v-.368a.88.88 0 0 0-.879-.879H16a2 2 0 0 1-2-2ZM3 9V8c0-.932 0-1.398.152-1.765a2 2 0 0 1 1.083-1.083C4.602 5 5.068 5 6 5h.5c1.404 0 2.107 0 2.611.337a2 2 0 0 1 .552.552C10 6.393 10 7.096 10 8.5v.843c0 .818 0 1.226-.152 1.594s-.442.657-1.02 1.235l-.588.588A.726.726 0 0 1 7 12.247v-.368A.88.88 0 0 0 6.121 11H5a2 2 0 0 1-2-2Z" stroke="#84C666" stroke-width="1.2" stroke-linejoin="round"/>
</svg>