<!DOCTYPE svg PUBLIC "-//W3C//DTD SVG 1.1//EN" "http://www.w3.org/Graphics/SVG/1.1/DTD/svg11.dtd">
<!-- Uploaded to: SVG Repo, www.svgrepo.com, Transformed by: SVG Repo Mixer Tools -->
<svg width="800px" height="800px" viewBox="0 0 16 16" xmlns="http://www.w3.org/2000/svg" fill="none" stroke="#3D2E7C" stroke-width="0.00016">
<g id="SVGRepo_bgCarrier" stroke-width="0"/>
<g id="SVGRepo_tracerCarrier" stroke-linecap="round" stroke-linejoin="round"/>
<g id="SVGRepo_iconCarrier"> <g fill="#3D2E7C" fill-rule="evenodd" clip-rule="evenodd"> <path d="M8 6a2 2 0 100 4 2 2 0 000-4zm-.5 2a.5.5 0 111 0 .5.5 0 01-1 0z"/> <path d="M3 8a5 5 0 1110 0A5 5 0 013 8zm5-3.5a3.5 3.5 0 100 7 3.5 3.5 0 000-7z"/> <path d="M0 8a8 8 0 1116 0A8 8 0 010 8zm8-6.5a6.5 6.5 0 100 13 6.5 6.5 0 000-13z"/> </g> </g>
</svg>