<svg xmlns="http://www.w3.org/2000/svg" style="shape-rendering:geometricPrecision;text-rendering:geometricPrecision;image-rendering:optimizeQuality;fill-rule:evenodd;clip-rule:evenodd" viewBox="56.21 83.61 287.56 57.71">
  <path style="opacity:.998" fill="#f89f19" d="M89.275 85.375v19.75a52 52 0 0 1-6.1 2.4v-23.8a6.94 6.94 0 0 1 4.05.475 31 31 0 0 1 2.05 1.175"/>
  <path style="opacity:.998" fill="#f7981b" d="M83.175 83.725v23.8a63 63 0 0 1-9.3 2.35v-21.25l7.05-4.125a6.3 6.3 0 0 1 2.25-.775"/>
  <path style="opacity:.997" fill="#f9a318" d="M89.275 85.375q.772.387 1.5.85v18.25q-.733.366-1.5.65z"/>
  <path style="opacity:.994" fill="#f9f9fa" d="M263.625 85.425q3.282-.177 4.725 2.75a5.06 5.06 0 0 1 .25 2.7 800 800 0 0 1-2.75 13.45q.286-.36.625-.675a16.9 16.9 0 0 1 4.75-2.45 11.1 11.1 0 0 1 3.175-.375q7.523-.09 9.8 7.05a19.5 19.5 0 0 1 .55 7.2q-.592 6.857-4.85 12.2a14.74 14.74 0 0 1-6.875 4.625 12.44 12.44 0 0 1-6.6.05q-3.013-1.039-4.375-3.925a18 18 0 0 1-.65-1.7l-.55 2.65q-1.034 2.971-4.175 3.1-2.925-.114-4.075-2.8a4.47 4.47 0 0 1-.15-2.5q3.655-19.03 7.35-38.05.929-2.792 3.825-3.3m7.05 22.25q2.928-.254 4.125 2.4a8.5 8.5 0 0 1 .55 2.5 16 16 0 0 1-1.8 8.65 9.4 9.4 0 0 1-3.275 3.575 5.55 5.55 0 0 1-3.85.75q-1.559-.36-2.375-1.725a7 7 0 0 1-.8-2.6q-.533-5.111 1.95-9.6a8.6 8.6 0 0 1 3.275-3.275 6.9 6.9 0 0 1 2.2-.675"/>
  <path style="opacity:.997" fill="#f9a517" d="M90.775 86.225q1.44.807 2.85 1.65v15.2q-1.416.72-2.85 1.4z"/>
  <path style="opacity:.996" fill="#faa717" d="M93.625 87.875q.49.258.95.55v14.15l-.95.5z"/>
  <path style="opacity:.995" fill="#faab16" d="M94.575 88.425q2.395 1.346 4.75 2.75v8.6a67 67 0 0 1-4.75 2.8z"/>
  <path style="opacity:.996" fill="#f6921d" d="M73.875 88.625v21.25a55.5 55.5 0 0 1-16.3.25q.484-4.9.975-9.8.584-3.006 3.125-4.675 6.092-3.533 12.2-7.025"/>
  <path style="opacity:.989" fill="#fbb114" d="M99.325 91.175a249 249 0 0 1 5.15 2.95v2.15a61 61 0 0 1-5.15 3.5z"/>
  <path style="opacity:.994" fill="#f9f9fa" d="M136.325 93.875q3.339-.189 4.775 2.8.423 1.088.3 2.25-.103.639-.225 1.275a.48.48 0 0 0 .2.35q5.571.112 11.15.075a.3.3 0 0 1-.15.325 20.2 20.2 0 0 0-5.725 5.925 2 2 0 0 1-1.025.675l-5.55.05a.7.7 0 0 0-.275.125 4 4 0 0 0-.25.95q-1.07 5.546-2.1 11.1a8.05 8.05 0 0 0 0 3.25q.45 1.257 1.775 1.475 4.09.652 7.7-1.35-.986-5.827 1.375-11.275a20.8 20.8 0 0 1 6.225-8.275q4.976-3.59 11.05-2.5 2.61.435 4.475 2.275a9.3 9.3 0 0 1 2.3 4.9q.315 3.453-1.9 6.1a13.3 13.3 0 0 1-5.725 3.775 24.6 24.6 0 0 1-8.95 1.225q-.33 3.426 3.05 4.125 4.306 1.155 8.45-.5 1.229-.503 2.4-1.125.945-3.53 4.05-5.425a17.4 17.4 0 0 1 4.65-1.9 33.6 33.6 0 0 1 5.6-.9q2.953-.16 5.9-.35a1.3 1.3 0 0 0 .275-.325q.31-1.512.425-3.05.064-2.172-2-2.825-3.687-.813-6.05 2.1-2.245 1.798-5.1 1.35-2.305-.744-2.45-3.175.072-1.58 1.25-2.625 3.07-2.66 7.1-3.4a24.5 24.5 0 0 1 9.8.15q3.078.708 5.125 3.075 1.621 2.282 1.575 5.1a19 19 0 0 1-.275 2.6 470 470 0 0 0-2.1 11.15 2.74 2.74 0 0 0 .25 1.65q.287.338.725.425l1.2.15q.898.272.95 1.2-.566 3.565-3.85 5.05-1.817.68-3.75.45a7 7 0 0 1-3.55-1.15q-1.47-1.176-1.625-3.075-.35-.479-.825-.15-4.68 5.606-11.85 4.025-3.119-.92-4.725-3.725-4.911 3.413-10.875 4.075-4.382.405-8-2.05a13.4 13.4 0 0 1-2.375-2.375q-3.204 2.546-7.125 3.825-3.83.975-7.75.45-5.385-.786-6.325-6.125-.295-2.171 0-4.35 1.22-6.909 2.525-13.8-.132-.37-.525-.35-3.262.077-6.525.075-2.809-.647-3-3.525.175-2.613 2.7-3.325a6 6 0 0 1 .8-.15q3.906-.001 7.8-.1l.175-.175.65-3.25q.95-2.718 3.775-3.25m26.5 13.15a5.9 5.9 0 0 1 2.35.275q1.5.734 1.5 2.425-.227 2.365-2.3 3.525a9.6 9.6 0 0 1-3.8 1.1 707 707 0 0 1-4.1.325l-.3-.05a11.25 11.25 0 0 1 1.525-4.45q1.849-2.735 5.125-3.15m25.3 11.3q.526-.013 1.05.025a11.1 11.1 0 0 1-1.625 4.275q-2.318 3.19-6.275 2.925-2.926-.402-2.475-3.325.477-1.776 2.075-2.675a9.5 9.5 0 0 1 3.85-1.05q1.713-.072 3.4-.175"/>
  <path style="opacity:.943" fill="#fcb613" d="M104.475 94.125q.81.443 1.6.925a19 19 0 0 1-1.6 1.225z"/>
  <path style="opacity:.997" fill="#fbb114" d="M108.525 96.875v21.65q-.278 2.849-.525 5.7-.422 3.21-3.075 5.025l-2.15 1.225v-29.05a81 81 0 0 0 4.9-5.275q.075-.05.15 0 .406.314.7.725"/>
  <path style="opacity:.978" fill="#fcb613" d="M108.525 96.875q1.703 1.883 1.8 4.45a2507 2507 0 0 1-1.8 17.2z"/>
  <path style="opacity:.994" fill="#f9f9fa" d="M209.575 100.625q3.397-.015 4.475 3.2.25.914.125 1.85.105.381.425.15 2.571-3.695 6.925-4.875a11.5 11.5 0 0 1 5.4.1q3.53 1.156 4.725 4.675l.3 1.1q.176.201.35 0a14.2 14.2 0 0 1 4.925-4.825q3.81-2.011 8-1 3.85 1.2 4.975 5.075.598 2.499.25 5.05a768 768 0 0 1-2.05 10.75 6.4 6.4 0 0 0 0 2.45q.204.755.975.875 2.976-.259 2.025 2.575-1.207 3.657-4.975 4.475a9.13 9.13 0 0 1-4.95-.5q-3.12-1.377-2.975-4.775l2.3-13.6a6.9 6.9 0 0 0-.15-3.65q-.522-1.23-1.825-1.525-2.42-.408-4.3 1.15a10 10 0 0 0-2.575 3.825 20 20 0 0 0-.85 2.85 5026 5026 0 0 0-2.45 12.75q-.511 2.312-2.675 3.275-3.182 1.095-5.375-1.425-1.165-1.594-.85-3.55 1.344-7.072 2.65-14.15a6.36 6.36 0 0 0-.1-2.9q-.536-1.61-2.225-1.875-2.968-.26-4.875 2.025a12.6 12.6 0 0 0-2.15 4.2 22 22 0 0 0-.45 1.75 5026 5026 0 0 0-2.45 12.75q-.957 3.307-4.4 3.5-2.958-.084-4.2-2.75a5 5 0 0 1-.3-2.45 4728 4728 0 0 1 4.4-23.05q.84-3.024 3.925-3.5"/>
  <path style="opacity:.993" fill="#f9f9fa" d="M300.475 100.875q2.928-.226 5.7.725 2.492.967 3.825 3.275 2.958 5.415-1.15 10a14 14 0 0 1-5.875 3.475 25.1 25.1 0 0 1-8.35 1.025q-.356 3.282 2.85 4.075 4.545 1.278 8.9-.55a22.7 22.7 0 0 0 4.725-2.675q.171-9.05 6.525-15.425 4.998-4.707 11.85-3.8 2.608.335 4.65 1.95 2.61 2.558 2.8 6.225-.19 3.69-2.9 6.175a14.6 14.6 0 0 1-5.55 3.05 25.4 25.4 0 0 1-8.2.975q-.36 3.169 2.7 4.025 4.467 1.315 8.8-.4a21.3 21.3 0 0 0 6.15-3.7q1.397-1.522 2.85-3a3.5 3.5 0 0 1 1.2-.65q1.379-.195 1.775 1.125.061.585-.1 1.15a9 9 0 0 1-1 2.15 37 37 0 0 1-3.25 4.45q-5.296 5.495-12.725 7.425-3.287.754-6.6.15-5.324-1.324-7.675-6.275-5.188 4.763-12.125 6.275a15.2 15.2 0 0 1-6.65-.2q-4.351-1.426-6.575-5.425-2.004-3.997-1.5-8.45.987-8.211 7.025-13.775 3.408-2.942 7.9-3.375m1.2 6.15a6.4 6.4 0 0 1 2.2.225q1.364.49 1.575 1.925.2 2.288-1.625 3.675a9.1 9.1 0 0 1-4.4 1.5q-2.199.192-4.4.325a11.6 11.6 0 0 1 1.275-4.1q1.839-3.063 5.375-3.55m25.65 0a5.9 5.9 0 0 1 2.35.275q1.5.734 1.5 2.425-.218 2.373-2.3 3.525a9.6 9.6 0 0 1-3.8 1.1q-2.037.166-4.075.325l-.325-.05q.247-1.537.775-3 1.638-3.976 5.875-4.6"/>
  <path style="opacity:.998" fill="#faab16" d="M102.775 101.425v29.05a209 209 0 0 1-5.3 3.05v-27.35a144 144 0 0 0 5.3-4.75"/>
  <path style="opacity:.998" fill="#faa717" d="M97.475 106.175v27.35q-.488.357-1.05.6v-27.1q.502-.451 1.05-.85"/>
  <path style="opacity:.998" fill="#f9a517" d="M96.425 107.025v27.1a48 48 0 0 1-3.2 1.85v-26.5z"/>
  <path style="opacity:.998" fill="#f9a318" d="M93.225 109.475v26.5q-.825.538-1.7 1v-26.3a30 30 0 0 1 1.7-1.2"/>
  <path style="opacity:.998" fill="#f89f19" d="M91.525 110.675v26.3l-6.05 3.525a7 7 0 0 1-.7.325v-26a100 100 0 0 0 6.75-4.15"/>
  <path style="opacity:.998" fill="#f7991b" d="M84.775 114.825v26q-3.131 1.161-6.1-.375a269 269 0 0 1-4.3-2.525v-18.55a78.5 78.5 0 0 0 10.4-4.55"/>
  <path style="opacity:.995" fill="#f6921d" d="M74.375 119.375v18.55a3285 3285 0 0 1-14.8-8.475q-3.614-2.315-3.35-6.625 9.312-.49 18.15-3.45"/>
</svg>