<svg xmlns="http://www.w3.org/2000/svg" style="shape-rendering:geometricPrecision;text-rendering:geometricPrecision;image-rendering:optimizeQuality;fill-rule:evenodd;clip-rule:evenodd" viewBox="22.15 15.28 205.66 219.39">
  <path style="opacity:.999" fill="#f89f19" d="M147.75 21.861v75.278a281 281 0 0 1-23.111 9V15.695q8.468-1.462 16.222 2.25a618 618 0 0 1 6.889 3.917"/>
  <path style="opacity:.999" fill="#f7981b" d="M124.639 15.694v90.444a234 234 0 0 1-35.444 8.833V34.36l27.278-15.806q3.849-2.103 8.167-2.861"/>
  <path style="opacity:.999" fill="#f9a318" d="m147.75 21.861 5.778 3.333v69.278a206 206 0 0 1-5.778 2.667z"/>
  <path style="opacity:.999" fill="#f9a517" d="M153.528 25.194q5.44 3.109 10.833 6.278v57.667a210 210 0 0 1-10.833 5.333z"/>
  <path style="opacity:.999" fill="#faa717" d="M164.361 31.472a110 110 0 0 1 3.611 2.056V87.25a56 56 0 0 1-3.611 1.889z"/>
  <path style="opacity:.998" fill="#faab16" d="M167.972 33.528a4323 4323 0 0 1 18.056 10.389V76.75a256 256 0 0 1-18.056 10.5z"/>
  <path style="opacity:.999" fill="#f6921d" d="M89.194 34.361v80.611a210 210 0 0 1-53.389 1.972 190 190 0 0 1-8.444-.972 45577 45577 0 0 0 3.306-31.667q-.05-10.6 6.833-18.556a27.4 27.4 0 0 1 5.75-4.806z"/>
  <path style="opacity:.997" fill="#fbb114" d="m186.028 43.917 19.556 11.278v8.222a279 279 0 0 1-19.556 13.333z"/>
  <path style="opacity:.984" fill="#fcb613" d="M205.583 55.194a247 247 0 0 1 6.111 3.556 365 365 0 0 1-6.111 4.667z"/>
  <path style="opacity:.999" fill="#fbb114" d="M220.972 65.528v83.5q-.842 8.586-1.75 17.167-.108 11.973-8.806 20.083a32 32 0 0 1-3.111 2.389 354 354 0 0 1-8.111 4.694V83.028A394 394 0 0 0 215 66.361a137 137 0 0 0 3.028-3.528q.055-.056.111 0a28 28 0 0 1 2.833 2.694"/>
  <path style="opacity:.993" fill="#fcb613" d="M220.972 65.528q6.552 7.275 6.833 17.139a16 16 0 0 1-.139 2.083 32410 32410 0 0 1-6.694 64.278z"/>
  <path style="opacity:.999" fill="#faab16" d="M199.194 83.028v110.333a5289 5289 0 0 1-20.167 11.667V101.139a333 333 0 0 0 20.056-18.083.14.14 0 0 1 .111-.028"/>
  <path style="opacity:.999" fill="#faa717" d="M179.028 101.139v103.889a218 218 0 0 1-4.056 2.333V104.417a174 174 0 0 1 4.056-3.278"/>
  <path style="opacity:.999" fill="#f9a517" d="M174.972 104.417v102.944q-6.01 3.52-12.056 7V113.583a461 461 0 0 0 12.056-9.167"/>
  <path style="opacity:.999" fill="#f9a318" d="M162.917 113.583v100.778l-6.444 3.722v-99.944z"/>
  <path style="opacity:.999" fill="#f89f19" d="M156.472 118.139v99.944a8512 8512 0 0 0-23 13.306 24 24 0 0 1-2.833 1.306v-98.722a286 286 0 0 0 17.889-10.583l7.944-5.25"/>
  <path style="opacity:.999" fill="#f7991b" d="M130.639 133.972v98.722q-5.979 2.472-12.444 1.861a26.5 26.5 0 0 1-9.556-2.778 2004 2004 0 0 1-17.5-10.083v-70.5a256 256 0 0 0 39.5-17.222"/>
  <path style="opacity:.998" fill="#f6921d" d="M91.139 151.194v70.5a43240 43240 0 0 1-56.222-32.361q-10.303-6.441-12.472-18.472-.55-3.245-.083-6.5a251.2 251.2 0 0 0 68.778-13.167"/>
</svg>