<svg xmlns="http://www.w3.org/2000/svg" style="shape-rendering:geometricPrecision;text-rendering:geometricPrecision;image-rendering:optimizeQuality;fill-rule:evenodd;clip-rule:evenodd" viewBox="56.38 83.61 287.24 57.72">
  <path style="opacity:.998" fill="#f89f19" d="M89.425 85.375v19.8a68 68 0 0 1-6.1 2.35v-23.8q2.521-.444 4.75.825z"/>
  <path style="opacity:.998" fill="#f7981b" d="M83.325 83.725v23.8a59.4 59.4 0 0 1-9.3 2.35v-21.25q3.9-2.335 7.9-4.525a6 6 0 0 1 1.4-.375"/>
  <path style="opacity:.994" fill="#3f2e80" d="M263.725 85.125q2.761-.022 4.225 2.3a4.75 4.75 0 0 1 .45 3.35 936 936 0 0 1-2.7 13.25q.26-.336.575-.625a19 19 0 0 1 3.2-1.9q2.251-1.015 4.725-.975 7.702-.051 9.9 7.3 1.636 7.6-1.55 14.7a18.26 18.26 0 0 1-5.675 7.125q-4.113 2.947-9.15 2.35-4.11-.587-5.875-4.325a16 16 0 0 1-.6-1.65 175 175 0 0 0-.55 2.6q-.882 2.782-3.775 3.175-3.075.122-4.425-2.625a4.53 4.53 0 0 1-.25-2.5q3.668-19.157 7.4-38.3 1.042-2.888 4.075-3.25m7.15 22.25q3.218.081 4.025 3.2 1.082 5.658-1.7 10.7a9.6 9.6 0 0 1-3.225 3.325q-1.887 1.082-4 .6-1.692-.567-2.375-2.225a10.9 10.9 0 0 1-.6-4.55q.168-3.645 1.9-6.85a9.6 9.6 0 0 1 3.175-3.375 6.4 6.4 0 0 1 2.8-.825"/>
  <path style="opacity:.997" fill="#f9a318" d="M89.425 85.375a17 17 0 0 1 1.5.85v18.25l-1.5.7z"/>
  <path style="opacity:.996" fill="#f9a517" d="M90.925 86.225q1.445.796 2.85 1.65v15.2a38 38 0 0 1-2.85 1.4z"/>
  <path style="opacity:.996" fill="#faa717" d="M93.775 87.875q.495.246.95.55v14.15q-.464.269-.95.5z"/>
  <path style="opacity:.995" fill="#faab16" d="M94.725 88.425q2.386 1.33 4.75 2.7v8.7a67 67 0 0 1-4.75 2.75z"/>
  <path style="opacity:.996" fill="#f6921d" d="M74.025 88.625v21.25a55.5 55.5 0 0 1-16.3.25q.513-4.848.975-9.7.557-3.13 3.225-4.825a2185 2185 0 0 1 12.1-6.975"/>
  <path style="opacity:.989" fill="#fbb114" d="M99.475 91.125q2.59 1.482 5.15 3v2.15a62 62 0 0 1-5.15 3.55z"/>
  <path style="opacity:.994" fill="#3f2e80" d="M136.425 93.575q3.188-.021 4.525 2.85.378.993.3 2.05-.088.704-.225 1.4-.019.3.25.425 5.55.032 11.1.075a.42.42 0 0 1-.2.325 19.9 19.9 0 0 0-5.675 5.875 1.88 1.88 0 0 1-1.225.725l-5.5.05q-.154.07-.225.225-1.141 5.896-2.25 11.8a10.5 10.5 0 0 0-.1 3.05q.266 1.346 1.575 1.725 4.2.786 7.95-1.25-1.272-9.726 5.075-17.175 5.952-6.726 14.725-4.625 2.792.818 4.325 3.275 2.634 4.27.2 8.65a11.6 11.6 0 0 1-4.575 4.025 21 21 0 0 1-7.9 2 22 22 0 0 1-3 .025q-.078 1.104.275 2.15a3 3 0 0 0 1.475 1.525q4.18 1.675 8.5.4 1.93-.585 3.7-1.55.832-3.257 3.6-5.15 2.767-1.757 6-2.4a37 37 0 0 1 4.95-.7q2.524-.151 5.05-.25.636.102.875-.475.282-1.48.425-2.975.072-2.11-1.9-2.8-3.77-.894-6.2 2.1-2.623 2.08-5.8 1.05-2.001-1.266-1.625-3.625a3.53 3.53 0 0 1 1.075-1.825q3.026-2.701 7.05-3.45a26 26 0 0 1 6.45-.4q3.307.108 6.25 1.6 3.557 2.046 3.875 6.175a13.8 13.8 0 0 1-.25 3.7 1444 1444 0 0 0-2 10.4 7.7 7.7 0 0 0-.05 1.6q.138.938 1.075 1.075.5.059 1 .1.996.21 1.05 1.225-.758 4.23-4.9 5.375-2.685.467-5.25-.45-2.371-1.072-2.675-3.675-.293-.378-.725-.175-4.46 5.42-11.4 4.2-3.466-.782-5.25-3.825a24 24 0 0 1-10.15 3.975q-4.098.579-7.75-1.35a13.6 13.6 0 0 1-1.8-1.3 19 19 0 0 1-1.575-1.675 23.2 23.2 0 0 1-7.025 3.775 18.9 18.9 0 0 1-9.05.2q-4.308-1.284-5.075-5.725a15.6 15.6 0 0 1 0-4.6q1.17-6.58 2.4-13.15.082-.323.05-.65a.24.24 0 0 0-.175-.175q-3.45.007-6.9 0-2.246-.496-2.825-2.725-.41-3.195 2.675-4.125a5 5 0 0 1 1-.15l7.5-.05a.9.9 0 0 0 .225-.275q.333-1.842.8-3.65 1.151-2.49 3.875-2.8m26.5 13.15a5.5 5.5 0 0 1 2.15.325q1.049.499 1.325 1.625.379 2.256-1.375 3.725a8.65 8.65 0 0 1-4.4 1.65q-2.3.19-4.6.375a11.1 11.1 0 0 1 1.425-4.4q1.941-2.965 5.475-3.3m25.5 11.3h.55a9.9 9.9 0 0 1-2.075 4.95q-2.832 3.067-6.875 2.025-1.186-.51-1.425-1.775-.208-2.322 1.675-3.675a8.4 8.4 0 0 1 3.95-1.3q2.112-.109 4.2-.225"/>
  <path style="opacity:.945" fill="#fcb613" d="M104.625 94.125a12 12 0 0 1 1.6.95 27 27 0 0 1-1.6 1.2z"/>
  <path style="opacity:.997" fill="#fbb114" d="M108.675 96.825v21.85q-.283 3-.575 6-.592 3.023-3.175 4.675-.993.584-2 1.125v-29.05a81 81 0 0 0 4.9-5.275q.075-.05.15 0a4.5 4.5 0 0 1 .7.675"/>
  <path style="opacity:.978" fill="#fcb613" d="M108.675 96.825q1.715 1.893 1.8 4.475a1619 1619 0 0 1-1.8 17.375z"/>
  <path style="opacity:.994" fill="#3f2e80" d="M209.175 100.375q3.255-.205 4.575 2.75.397 1.171.3 2.4.2.201.4 0 2.677-3.825 7.225-4.925 2.993-.615 5.85.45 3.508 1.61 4.225 5.425.175.257.4.05 2.134-3.535 5.875-5.275 4.087-1.68 8.2-.1 2.882 1.422 3.775 4.525.694 2.673.25 5.4a1755 1755 0 0 1-2.05 10.7 8.2 8.2 0 0 0 0 2.15q.168.774.925.975.752.07 1.5.15 1.091.492.775 1.675-.743 3.819-4.425 5.075a9.12 9.12 0 0 1-5.6-.3q-3.272-1.415-3.025-4.925 1.232-7.195 2.4-14.4.05-.825 0-1.65-.213-2.338-2.525-2.675-2.212-.171-3.9 1.25a10 10 0 0 0-2.425 3.525 19 19 0 0 0-1.05 3.5q-1.185 6.148-2.35 12.3-.509 2.41-2.775 3.375-2.818.957-4.975-1.075-1.53-1.718-1.15-4 1.335-7.099 2.65-14.2.11-.973.05-1.95-.297-2.76-3.075-2.75a5.24 5.24 0 0 0-3.4 1.275 10.5 10.5 0 0 0-2.875 4.775 20 20 0 0 0-.5 1.9q-1.258 6.474-2.5 12.95-1.012 3.199-4.375 3.4-3.618-.231-4.475-3.75a4.6 4.6 0 0 1-.05-1.15 6053 6053 0 0 1 4.05-21.55q.241-1.128.5-2.25.95-2.513 3.575-3.05"/>
  <path style="opacity:.993" fill="#3f2e80" d="M300.625 100.575a13.3 13.3 0 0 1 5.7.875 7.4 7.4 0 0 1 3.275 2.775q2.947 4.631 0 9.25a12.1 12.1 0 0 1-5.025 3.925 22.9 22.9 0 0 1-9.1 1.725 13 13 0 0 1-1.05-.05 4.6 4.6 0 0 0 .475 2.55 3.5 3.5 0 0 0 1.875 1.375q4.593 1.522 9.1-.25a21.6 21.6 0 0 0 5.075-2.825q.157-8.973 6.425-15.325 5.474-5.157 12.9-3.7 4.111.912 5.775 4.775 1.887 4.853-1.55 8.75-2.776 2.808-6.625 3.825-3.836 1.031-7.8.825-.332 3.126 2.65 4.025 4.458 1.351 8.8-.35a22.3 22.3 0 0 0 6.15-3.65 124 124 0 0 1 2.9-3.05 2.9 2.9 0 0 1 1.35-.7q1.536-.052 1.7 1.475a6.6 6.6 0 0 1-.925 2.6 42 42 0 0 1-3.4 4.75q-5.354 5.622-12.925 7.525-3.583.87-7.15-.05-3.648-1.1-5.875-4.175a27 27 0 0 1-1.15-1.9q-5.365 4.877-12.525 6.325a14.2 14.2 0 0 1-6.45-.35q-5.471-2.021-7.275-7.575a16.6 16.6 0 0 1-.5-6.8q1.203-8.09 7.275-13.475 3.45-2.805 7.9-3.125m1.15 6.15q4.365-.099 3.275 4.1-.887 1.812-2.775 2.525a10.8 10.8 0 0 1-2.8.7q-2.3.19-4.6.375a9.95 9.95 0 0 1 2.125-5.35q1.93-2.109 4.775-2.35m25.65 0a6.2 6.2 0 0 1 1.9.225q1.935.855 1.625 2.975-.39 1.965-2.125 2.975a9.6 9.6 0 0 1-3.7 1.15q-2.3.19-4.6.375a11 11 0 0 1 1.525-4.55q1.955-2.822 5.375-3.15"/>
  <path style="opacity:.998" fill="#faab16" d="M102.925 101.425v29.05l-5.3 3.1v-27.4a89 89 0 0 0 5.3-4.75"/>
  <path style="opacity:.998" fill="#faa717" d="M97.625 106.175v27.4a17 17 0 0 0-1.05.6v-27.15q.511-.444 1.05-.85"/>
  <path style="opacity:.998" fill="#f9a517" d="M96.575 107.025v27.15a148 148 0 0 1-3.15 1.8v-26.55q1.586-1.181 3.15-2.4"/>
  <path style="opacity:.998" fill="#f9a318" d="M93.425 109.425v26.55l-1.7 1v-26.35q.847-.6 1.7-1.2"/>
  <path style="opacity:.998" fill="#f89f19" d="M91.725 110.625v26.35a526 526 0 0 0-5.9 3.425q-.442.234-.9.425v-26a89 89 0 0 0 6.8-4.2"/>
  <path style="opacity:.998" fill="#f7991b" d="M84.925 114.825v26a7.44 7.44 0 0 1-4.5.275 7.3 7.3 0 0 1-1.5-.6 282 282 0 0 1-4.4-2.575v-18.55a73 73 0 0 0 10.4-4.55"/>
  <path style="opacity:.995" fill="#f6921d" d="M74.525 119.375v18.55q-7.77-4.385-15.45-8.925-2.92-2.331-2.675-6.075a.22.22 0 0 1 .15-.1 68.4 68.4 0 0 0 17.975-3.45"/>
</svg>